<svg width="32" height="32" viewBox="0 0 32 32" fill="none" xmlns="http://www.w3.org/2000/svg">
<path d="M15.768 27.252C14.592 27.252 13.572 27.072 12.708 26.712C11.844 26.352 11.184 25.716 10.728 24.804C10.296 23.892 10.08 22.608 10.08 20.952V19.728C10.656 19.728 11.244 19.728 11.844 19.728C12.444 19.728 13.032 19.728 13.608 19.728V21.24C13.608 22.248 13.704 23.028 13.896 23.58C14.088 24.132 14.352 24.516 14.688 24.732C15.024 24.924 15.408 25.02 15.84 25.02C16.536 25.02 17.088 24.792 17.496 24.336C17.928 23.856 18.144 22.968 18.144 21.672C18.144 20.712 18 19.992 17.712 19.512C17.424 19.032 16.968 18.648 16.344 18.36C15.744 18.048 14.964 17.7 14.004 17.316C13.212 16.956 12.528 16.536 11.952 16.056C11.376 15.576 10.944 14.964 10.656 14.22C10.368 13.476 10.224 12.552 10.224 11.448C10.224 10.104 10.392 9.012 10.728 8.172C11.088 7.308 11.688 6.684 12.528 6.3C13.368 5.892 14.496 5.688 15.912 5.688C17.736 5.688 19.128 6.108 20.088 6.948C21.048 7.764 21.528 8.964 21.528 10.548V13.032C20.976 13.032 20.412 13.032 19.836 13.032C19.284 13.032 18.72 13.032 18.144 13.032V11.556C18.144 10.452 17.964 9.66 17.604 9.18C17.268 8.676 16.716 8.424 15.948 8.424C15.156 8.424 14.58 8.664 14.22 9.144C13.884 9.6 13.716 10.332 13.716 11.34C13.716 12.204 13.884 12.876 14.22 13.356C14.556 13.812 14.988 14.172 15.516 14.436C16.068 14.7 16.632 14.94 17.208 15.156C18.288 15.564 19.164 15.984 19.836 16.416C20.508 16.848 21 17.424 21.312 18.144C21.624 18.864 21.78 19.884 21.78 21.204C21.78 22.716 21.528 23.916 21.024 24.804C20.544 25.668 19.848 26.292 18.936 26.676C18.048 27.06 16.992 27.252 15.768 27.252Z" fill="white"/>
</svg>
